<mxfile host="app.diagrams.net" modified="2023-11-18T22:11:12.765Z" agent="Mozilla/5.0 (Windows NT 10.0; Win64; x64) AppleWebKit/537.36 (KHTML, like Gecko) Chrome/119.0.0.0 Safari/537.36" etag="V9cAAux14v9X6Gzk8U5p" version="22.1.3" type="github">
  <diagram name="Page-1" id="90a13364-a465-7bf4-72fc-28e22215d7a0">
    <mxGraphModel dx="1909" dy="1044" grid="1" gridSize="10" guides="1" tooltips="1" connect="1" arrows="1" fold="1" page="1" pageScale="1.5" pageWidth="1169" pageHeight="826" background="none" math="0" shadow="0">
      <root>
        <mxCell id="0" style=";html=1;" />
        <mxCell id="1" style=";html=1;" parent="0" />
        <mxCell id="pYXvtJsU-asG7upFfrmA-1" value="Master MCU" style="rounded=0;whiteSpace=wrap;html=1;fillColor=#dae8fc;strokeColor=#6c8ebf;" parent="1" vertex="1">
          <mxGeometry x="600" y="590" width="160" height="100" as="geometry" />
        </mxCell>
        <mxCell id="pYXvtJsU-asG7upFfrmA-29" style="edgeStyle=orthogonalEdgeStyle;rounded=0;orthogonalLoop=1;jettySize=auto;html=1;exitX=0.25;exitY=0;exitDx=0;exitDy=0;entryX=1;entryY=0.5;entryDx=0;entryDy=0;" parent="1" source="pYXvtJsU-asG7upFfrmA-2" target="pYXvtJsU-asG7upFfrmA-21" edge="1">
          <mxGeometry relative="1" as="geometry" />
        </mxCell>
        <mxCell id="pYXvtJsU-asG7upFfrmA-34" style="edgeStyle=orthogonalEdgeStyle;rounded=0;orthogonalLoop=1;jettySize=auto;html=1;exitX=0.5;exitY=1;exitDx=0;exitDy=0;" parent="1" source="pYXvtJsU-asG7upFfrmA-2" edge="1">
          <mxGeometry relative="1" as="geometry">
            <mxPoint x="1119.857142857143" y="560" as="targetPoint" />
          </mxGeometry>
        </mxCell>
        <mxCell id="pYXvtJsU-asG7upFfrmA-79" style="edgeStyle=orthogonalEdgeStyle;rounded=0;orthogonalLoop=1;jettySize=auto;html=1;exitX=0.25;exitY=0;exitDx=0;exitDy=0;entryX=1;entryY=0.5;entryDx=0;entryDy=0;" parent="1" source="pYXvtJsU-asG7upFfrmA-2" target="pYXvtJsU-asG7upFfrmA-19" edge="1">
          <mxGeometry relative="1" as="geometry">
            <Array as="points">
              <mxPoint x="1110" y="470" />
              <mxPoint x="1110" y="335" />
            </Array>
          </mxGeometry>
        </mxCell>
        <mxCell id="pYXvtJsU-asG7upFfrmA-80" style="edgeStyle=orthogonalEdgeStyle;rounded=0;orthogonalLoop=1;jettySize=auto;html=1;exitX=0.75;exitY=0;exitDx=0;exitDy=0;entryX=0;entryY=0.5;entryDx=0;entryDy=0;" parent="1" source="pYXvtJsU-asG7upFfrmA-2" target="pYXvtJsU-asG7upFfrmA-20" edge="1">
          <mxGeometry relative="1" as="geometry">
            <Array as="points">
              <mxPoint x="1130" y="470" />
              <mxPoint x="1130" y="335" />
            </Array>
          </mxGeometry>
        </mxCell>
        <mxCell id="pYXvtJsU-asG7upFfrmA-2" value="Wind &lt;br&gt;Sub-MCU" style="rounded=0;whiteSpace=wrap;html=1;fillColor=#dae8fc;strokeColor=#6c8ebf;" parent="1" vertex="1">
          <mxGeometry x="1080" y="470" width="80" height="50" as="geometry" />
        </mxCell>
        <mxCell id="pYXvtJsU-asG7upFfrmA-103" style="edgeStyle=orthogonalEdgeStyle;rounded=0;orthogonalLoop=1;jettySize=auto;html=1;exitX=0.5;exitY=0;exitDx=0;exitDy=0;" parent="1" source="pYXvtJsU-asG7upFfrmA-3" edge="1">
          <mxGeometry relative="1" as="geometry">
            <mxPoint x="1000.0588235294117" y="560" as="targetPoint" />
          </mxGeometry>
        </mxCell>
        <mxCell id="bZnnXGi6zuuNG5KvTImj-10" style="edgeStyle=orthogonalEdgeStyle;rounded=0;orthogonalLoop=1;jettySize=auto;html=1;exitX=0;exitY=0.5;exitDx=0;exitDy=0;entryX=0.5;entryY=0;entryDx=0;entryDy=0;" edge="1" parent="1" source="pYXvtJsU-asG7upFfrmA-3" target="pYXvtJsU-asG7upFfrmA-45">
          <mxGeometry relative="1" as="geometry" />
        </mxCell>
        <mxCell id="pYXvtJsU-asG7upFfrmA-3" value="Weather &lt;br&gt;Sub-MCU" style="rounded=0;whiteSpace=wrap;html=1;fillColor=#dae8fc;strokeColor=#6c8ebf;" parent="1" vertex="1">
          <mxGeometry x="960" y="630" width="80" height="50" as="geometry" />
        </mxCell>
        <mxCell id="pYXvtJsU-asG7upFfrmA-84" style="edgeStyle=orthogonalEdgeStyle;rounded=0;orthogonalLoop=1;jettySize=auto;html=1;exitX=0.25;exitY=0;exitDx=0;exitDy=0;entryX=1;entryY=0.5;entryDx=0;entryDy=0;" parent="1" source="pYXvtJsU-asG7upFfrmA-4" target="pYXvtJsU-asG7upFfrmA-66" edge="1">
          <mxGeometry relative="1" as="geometry" />
        </mxCell>
        <mxCell id="pYXvtJsU-asG7upFfrmA-85" style="edgeStyle=orthogonalEdgeStyle;rounded=0;orthogonalLoop=1;jettySize=auto;html=1;exitX=0.25;exitY=0;exitDx=0;exitDy=0;entryX=1;entryY=0.5;entryDx=0;entryDy=0;" parent="1" source="pYXvtJsU-asG7upFfrmA-4" target="pYXvtJsU-asG7upFfrmA-69" edge="1">
          <mxGeometry relative="1" as="geometry">
            <Array as="points">
              <mxPoint x="830" y="470" />
              <mxPoint x="830" y="335" />
            </Array>
          </mxGeometry>
        </mxCell>
        <mxCell id="pYXvtJsU-asG7upFfrmA-86" style="edgeStyle=orthogonalEdgeStyle;rounded=0;orthogonalLoop=1;jettySize=auto;html=1;exitX=0.75;exitY=0;exitDx=0;exitDy=0;entryX=0;entryY=0.5;entryDx=0;entryDy=0;" parent="1" source="pYXvtJsU-asG7upFfrmA-4" target="pYXvtJsU-asG7upFfrmA-77" edge="1">
          <mxGeometry relative="1" as="geometry" />
        </mxCell>
        <mxCell id="pYXvtJsU-asG7upFfrmA-88" style="edgeStyle=orthogonalEdgeStyle;rounded=0;orthogonalLoop=1;jettySize=auto;html=1;exitX=0.75;exitY=0;exitDx=0;exitDy=0;entryX=0;entryY=0.5;entryDx=0;entryDy=0;" parent="1" source="pYXvtJsU-asG7upFfrmA-4" target="pYXvtJsU-asG7upFfrmA-87" edge="1">
          <mxGeometry relative="1" as="geometry">
            <Array as="points">
              <mxPoint x="850" y="470" />
              <mxPoint x="850" y="335" />
            </Array>
          </mxGeometry>
        </mxCell>
        <mxCell id="pYXvtJsU-asG7upFfrmA-104" style="edgeStyle=orthogonalEdgeStyle;rounded=0;orthogonalLoop=1;jettySize=auto;html=1;exitX=0.5;exitY=1;exitDx=0;exitDy=0;" parent="1" source="pYXvtJsU-asG7upFfrmA-4" edge="1">
          <mxGeometry relative="1" as="geometry">
            <mxPoint x="840.0588235294117" y="560" as="targetPoint" />
          </mxGeometry>
        </mxCell>
        <mxCell id="pYXvtJsU-asG7upFfrmA-4" value="Water&lt;br&gt;Sub-MCU" style="rounded=0;whiteSpace=wrap;html=1;fillColor=#dae8fc;strokeColor=#6c8ebf;" parent="1" vertex="1">
          <mxGeometry x="800" y="470" width="80" height="50" as="geometry" />
        </mxCell>
        <mxCell id="pYXvtJsU-asG7upFfrmA-41" style="edgeStyle=orthogonalEdgeStyle;rounded=0;orthogonalLoop=1;jettySize=auto;html=1;exitX=0.75;exitY=1;exitDx=0;exitDy=0;entryX=0;entryY=0.5;entryDx=0;entryDy=0;" parent="1" source="pYXvtJsU-asG7upFfrmA-6" target="pYXvtJsU-asG7upFfrmA-35" edge="1">
          <mxGeometry relative="1" as="geometry" />
        </mxCell>
        <mxCell id="pYXvtJsU-asG7upFfrmA-44" style="edgeStyle=orthogonalEdgeStyle;rounded=0;orthogonalLoop=1;jettySize=auto;html=1;exitX=0.5;exitY=0;exitDx=0;exitDy=0;" parent="1" source="pYXvtJsU-asG7upFfrmA-6" edge="1">
          <mxGeometry relative="1" as="geometry">
            <mxPoint x="1280" y="560" as="targetPoint" />
          </mxGeometry>
        </mxCell>
        <mxCell id="pYXvtJsU-asG7upFfrmA-83" style="edgeStyle=orthogonalEdgeStyle;rounded=0;orthogonalLoop=1;jettySize=auto;html=1;exitX=0.75;exitY=1;exitDx=0;exitDy=0;entryX=0;entryY=0.5;entryDx=0;entryDy=0;" parent="1" source="pYXvtJsU-asG7upFfrmA-6" target="pYXvtJsU-asG7upFfrmA-37" edge="1">
          <mxGeometry relative="1" as="geometry">
            <Array as="points">
              <mxPoint x="1290" y="680" />
              <mxPoint x="1290" y="825" />
            </Array>
          </mxGeometry>
        </mxCell>
        <mxCell id="bZnnXGi6zuuNG5KvTImj-9" style="edgeStyle=orthogonalEdgeStyle;rounded=0;orthogonalLoop=1;jettySize=auto;html=1;exitX=0;exitY=0.5;exitDx=0;exitDy=0;entryX=0.5;entryY=0;entryDx=0;entryDy=0;" edge="1" parent="1" source="pYXvtJsU-asG7upFfrmA-6" target="pYXvtJsU-asG7upFfrmA-46">
          <mxGeometry relative="1" as="geometry" />
        </mxCell>
        <mxCell id="bZnnXGi6zuuNG5KvTImj-11" style="edgeStyle=orthogonalEdgeStyle;rounded=0;orthogonalLoop=1;jettySize=auto;html=1;exitX=1;exitY=0.5;exitDx=0;exitDy=0;entryX=0;entryY=0.5;entryDx=0;entryDy=0;" edge="1" parent="1" source="pYXvtJsU-asG7upFfrmA-6" target="pYXvtJsU-asG7upFfrmA-36">
          <mxGeometry relative="1" as="geometry">
            <Array as="points">
              <mxPoint x="1440" y="655" />
              <mxPoint x="1440" y="745" />
            </Array>
          </mxGeometry>
        </mxCell>
        <mxCell id="bZnnXGi6zuuNG5KvTImj-12" style="edgeStyle=orthogonalEdgeStyle;rounded=0;orthogonalLoop=1;jettySize=auto;html=1;exitX=1;exitY=0.75;exitDx=0;exitDy=0;entryX=0;entryY=0.25;entryDx=0;entryDy=0;" edge="1" parent="1" source="pYXvtJsU-asG7upFfrmA-6" target="pYXvtJsU-asG7upFfrmA-38">
          <mxGeometry relative="1" as="geometry">
            <Array as="points">
              <mxPoint x="1420" y="667" />
              <mxPoint x="1420" y="817" />
            </Array>
          </mxGeometry>
        </mxCell>
        <mxCell id="pYXvtJsU-asG7upFfrmA-6" value="HRES/Indoor Environment&lt;br&gt;Sub-MCU" style="rounded=0;whiteSpace=wrap;html=1;fillColor=#dae8fc;strokeColor=#6c8ebf;" parent="1" vertex="1">
          <mxGeometry x="1240" y="630" width="80" height="50" as="geometry" />
        </mxCell>
        <mxCell id="pYXvtJsU-asG7upFfrmA-13" value="Wifi Module" style="rounded=0;whiteSpace=wrap;html=1;fillColor=#fff2cc;strokeColor=#d6b656;" parent="1" vertex="1">
          <mxGeometry x="635" y="660" width="90" height="30" as="geometry" />
        </mxCell>
        <mxCell id="pYXvtJsU-asG7upFfrmA-18" style="edgeStyle=orthogonalEdgeStyle;rounded=0;orthogonalLoop=1;jettySize=auto;html=1;exitX=0.5;exitY=0;exitDx=0;exitDy=0;" parent="1" source="pYXvtJsU-asG7upFfrmA-14" edge="1">
          <mxGeometry relative="1" as="geometry">
            <mxPoint x="1480" y="560" as="targetPoint" />
            <Array as="points">
              <mxPoint x="680" y="560" />
            </Array>
          </mxGeometry>
        </mxCell>
        <mxCell id="pYXvtJsU-asG7upFfrmA-14" value="Communication Bus Module" style="rounded=0;whiteSpace=wrap;html=1;fillColor=#fff2cc;strokeColor=#d6b656;" parent="1" vertex="1">
          <mxGeometry x="635" y="590" width="90" height="30" as="geometry" />
        </mxCell>
        <mxCell id="pYXvtJsU-asG7upFfrmA-19" value="Wind Controller" style="rounded=0;whiteSpace=wrap;html=1;fillColor=#ffe6cc;strokeColor=#d79b00;" parent="1" vertex="1">
          <mxGeometry x="990" y="320" width="90" height="30" as="geometry" />
        </mxCell>
        <mxCell id="pYXvtJsU-asG7upFfrmA-20" value="RPM Sensor" style="rounded=0;whiteSpace=wrap;html=1;fillColor=#ffe6cc;strokeColor=#d79b00;" parent="1" vertex="1">
          <mxGeometry x="1160" y="320" width="90" height="30" as="geometry" />
        </mxCell>
        <mxCell id="pYXvtJsU-asG7upFfrmA-21" value="Temperature Sensor" style="rounded=0;whiteSpace=wrap;html=1;fillColor=#ffe6cc;strokeColor=#d79b00;" parent="1" vertex="1">
          <mxGeometry x="990" y="400" width="90" height="30" as="geometry" />
        </mxCell>
        <mxCell id="pYXvtJsU-asG7upFfrmA-23" value="Vibration Sensor" style="rounded=0;whiteSpace=wrap;html=1;fillColor=#ffe6cc;strokeColor=#d79b00;" parent="1" vertex="1">
          <mxGeometry x="1160" y="400" width="90" height="30" as="geometry" />
        </mxCell>
        <mxCell id="pYXvtJsU-asG7upFfrmA-25" value="Vibration Sensor" style="rounded=0;whiteSpace=wrap;html=1;fillColor=#ffe6cc;strokeColor=#d79b00;" parent="1" vertex="1">
          <mxGeometry x="1170" y="410" width="90" height="30" as="geometry" />
        </mxCell>
        <mxCell id="pYXvtJsU-asG7upFfrmA-26" value="Vibration Sensor" style="rounded=0;whiteSpace=wrap;html=1;fillColor=#ffe6cc;strokeColor=#d79b00;" parent="1" vertex="1">
          <mxGeometry x="1180" y="420" width="90" height="30" as="geometry" />
        </mxCell>
        <mxCell id="pYXvtJsU-asG7upFfrmA-33" style="edgeStyle=orthogonalEdgeStyle;rounded=0;orthogonalLoop=1;jettySize=auto;html=1;exitX=0.75;exitY=0;exitDx=0;exitDy=0;entryX=0;entryY=0.667;entryDx=0;entryDy=0;entryPerimeter=0;" parent="1" source="pYXvtJsU-asG7upFfrmA-2" target="pYXvtJsU-asG7upFfrmA-23" edge="1">
          <mxGeometry relative="1" as="geometry" />
        </mxCell>
        <mxCell id="pYXvtJsU-asG7upFfrmA-35" value="Temperature Sensor" style="rounded=0;whiteSpace=wrap;html=1;fillColor=#ffe6cc;strokeColor=#d79b00;" parent="1" vertex="1">
          <mxGeometry x="1320" y="730" width="90" height="30" as="geometry" />
        </mxCell>
        <mxCell id="pYXvtJsU-asG7upFfrmA-36" value="Inverter" style="rounded=0;whiteSpace=wrap;html=1;fillColor=#ffe6cc;strokeColor=#d79b00;" parent="1" vertex="1">
          <mxGeometry x="1465" y="730" width="90" height="30" as="geometry" />
        </mxCell>
        <mxCell id="pYXvtJsU-asG7upFfrmA-37" value="Charge Controller" style="rounded=0;whiteSpace=wrap;html=1;fillColor=#ffe6cc;strokeColor=#d79b00;" parent="1" vertex="1">
          <mxGeometry x="1320" y="810" width="90" height="30" as="geometry" />
        </mxCell>
        <mxCell id="pYXvtJsU-asG7upFfrmA-38" value="Battery Monitor" style="rounded=0;whiteSpace=wrap;html=1;fillColor=#ffe6cc;strokeColor=#d79b00;" parent="1" vertex="1">
          <mxGeometry x="1465" y="810" width="90" height="30" as="geometry" />
        </mxCell>
        <mxCell id="pYXvtJsU-asG7upFfrmA-62" style="edgeStyle=orthogonalEdgeStyle;rounded=0;orthogonalLoop=1;jettySize=auto;html=1;exitX=0.5;exitY=1;exitDx=0;exitDy=0;entryX=1;entryY=0.5;entryDx=0;entryDy=0;" parent="1" source="pYXvtJsU-asG7upFfrmA-45" target="pYXvtJsU-asG7upFfrmA-58" edge="1">
          <mxGeometry relative="1" as="geometry" />
        </mxCell>
        <mxCell id="pYXvtJsU-asG7upFfrmA-63" style="edgeStyle=orthogonalEdgeStyle;rounded=0;orthogonalLoop=1;jettySize=auto;html=1;exitX=0.5;exitY=1;exitDx=0;exitDy=0;entryX=1;entryY=0.5;entryDx=0;entryDy=0;" parent="1" source="pYXvtJsU-asG7upFfrmA-45" target="pYXvtJsU-asG7upFfrmA-59" edge="1">
          <mxGeometry relative="1" as="geometry">
            <Array as="points">
              <mxPoint x="900" y="780" />
              <mxPoint x="900" y="875" />
            </Array>
          </mxGeometry>
        </mxCell>
        <mxCell id="pYXvtJsU-asG7upFfrmA-64" style="edgeStyle=orthogonalEdgeStyle;rounded=0;orthogonalLoop=1;jettySize=auto;html=1;exitX=0.5;exitY=1;exitDx=0;exitDy=0;entryX=1;entryY=0.5;entryDx=0;entryDy=0;" parent="1" source="pYXvtJsU-asG7upFfrmA-45" target="pYXvtJsU-asG7upFfrmA-60" edge="1">
          <mxGeometry relative="1" as="geometry">
            <Array as="points">
              <mxPoint x="910" y="780" />
              <mxPoint x="910" y="925" />
            </Array>
          </mxGeometry>
        </mxCell>
        <mxCell id="pYXvtJsU-asG7upFfrmA-65" style="edgeStyle=orthogonalEdgeStyle;rounded=0;orthogonalLoop=1;jettySize=auto;html=1;exitX=0.5;exitY=1;exitDx=0;exitDy=0;entryX=1;entryY=0.5;entryDx=0;entryDy=0;" parent="1" source="pYXvtJsU-asG7upFfrmA-45" target="pYXvtJsU-asG7upFfrmA-61" edge="1">
          <mxGeometry relative="1" as="geometry">
            <Array as="points">
              <mxPoint x="920" y="780" />
              <mxPoint x="920" y="975" />
            </Array>
          </mxGeometry>
        </mxCell>
        <mxCell id="pYXvtJsU-asG7upFfrmA-45" value="Outdoor Weather Station" style="rounded=0;whiteSpace=wrap;html=1;fillColor=#fff2cc;strokeColor=#d6b656;" parent="1" vertex="1">
          <mxGeometry x="850" y="730" width="80" height="50" as="geometry" />
        </mxCell>
        <mxCell id="pYXvtJsU-asG7upFfrmA-56" style="edgeStyle=orthogonalEdgeStyle;rounded=0;orthogonalLoop=1;jettySize=auto;html=1;exitX=0.5;exitY=1;exitDx=0;exitDy=0;entryX=1;entryY=0.5;entryDx=0;entryDy=0;" parent="1" source="pYXvtJsU-asG7upFfrmA-46" target="pYXvtJsU-asG7upFfrmA-49" edge="1">
          <mxGeometry relative="1" as="geometry" />
        </mxCell>
        <mxCell id="pYXvtJsU-asG7upFfrmA-57" style="edgeStyle=orthogonalEdgeStyle;rounded=0;orthogonalLoop=1;jettySize=auto;html=1;exitX=0.5;exitY=1;exitDx=0;exitDy=0;entryX=1;entryY=0.5;entryDx=0;entryDy=0;" parent="1" source="pYXvtJsU-asG7upFfrmA-46" target="pYXvtJsU-asG7upFfrmA-53" edge="1">
          <mxGeometry relative="1" as="geometry">
            <Array as="points">
              <mxPoint x="1100" y="780" />
              <mxPoint x="1100" y="875" />
            </Array>
          </mxGeometry>
        </mxCell>
        <mxCell id="pYXvtJsU-asG7upFfrmA-46" value="Indoor Envionment" style="rounded=0;whiteSpace=wrap;html=1;fillColor=#fff2cc;strokeColor=#d6b656;" parent="1" vertex="1">
          <mxGeometry x="1050" y="730" width="80" height="50" as="geometry" />
        </mxCell>
        <mxCell id="pYXvtJsU-asG7upFfrmA-49" value="Temperature Sensor" style="rounded=0;whiteSpace=wrap;html=1;fillColor=#ffe6cc;strokeColor=#d79b00;" parent="1" vertex="1">
          <mxGeometry x="980" y="810" width="90" height="30" as="geometry" />
        </mxCell>
        <mxCell id="pYXvtJsU-asG7upFfrmA-50" value="(Batteries)" style="text;html=1;strokeColor=none;fillColor=none;align=center;verticalAlign=middle;whiteSpace=wrap;rounded=0;" parent="1" vertex="1">
          <mxGeometry x="1335" y="760" width="60" height="30" as="geometry" />
        </mxCell>
        <mxCell id="pYXvtJsU-asG7upFfrmA-53" value="Humidity Sensor" style="rounded=0;whiteSpace=wrap;html=1;fillColor=#ffe6cc;strokeColor=#d79b00;" parent="1" vertex="1">
          <mxGeometry x="980" y="860" width="90" height="30" as="geometry" />
        </mxCell>
        <mxCell id="pYXvtJsU-asG7upFfrmA-58" value="Temperature Sensor" style="rounded=0;whiteSpace=wrap;html=1;fillColor=#ffe6cc;strokeColor=#d79b00;" parent="1" vertex="1">
          <mxGeometry x="780" y="810" width="90" height="30" as="geometry" />
        </mxCell>
        <mxCell id="pYXvtJsU-asG7upFfrmA-59" value="Humidity Sensor" style="rounded=0;whiteSpace=wrap;html=1;fillColor=#ffe6cc;strokeColor=#d79b00;" parent="1" vertex="1">
          <mxGeometry x="780" y="860" width="90" height="30" as="geometry" />
        </mxCell>
        <mxCell id="pYXvtJsU-asG7upFfrmA-60" value="Anometer" style="rounded=0;whiteSpace=wrap;html=1;fillColor=#ffe6cc;strokeColor=#d79b00;" parent="1" vertex="1">
          <mxGeometry x="780" y="910" width="90" height="30" as="geometry" />
        </mxCell>
        <mxCell id="pYXvtJsU-asG7upFfrmA-61" value="Misc. Sensors" style="rounded=0;whiteSpace=wrap;html=1;fillColor=#ffe6cc;strokeColor=#d79b00;" parent="1" vertex="1">
          <mxGeometry x="780" y="960" width="90" height="30" as="geometry" />
        </mxCell>
        <mxCell id="pYXvtJsU-asG7upFfrmA-66" value="Flow Sensor" style="rounded=0;whiteSpace=wrap;html=1;fillColor=#ffe6cc;strokeColor=#d79b00;" parent="1" vertex="1">
          <mxGeometry x="710" y="400" width="90" height="30" as="geometry" />
        </mxCell>
        <mxCell id="pYXvtJsU-asG7upFfrmA-67" value="(Pump)" style="text;html=1;strokeColor=none;fillColor=none;align=center;verticalAlign=middle;whiteSpace=wrap;rounded=0;" parent="1" vertex="1">
          <mxGeometry x="710" y="430" width="90" height="30" as="geometry" />
        </mxCell>
        <mxCell id="pYXvtJsU-asG7upFfrmA-69" value="Water Level Sensor" style="rounded=0;whiteSpace=wrap;html=1;fillColor=#ffe6cc;strokeColor=#d79b00;" parent="1" vertex="1">
          <mxGeometry x="710" y="320" width="90" height="30" as="geometry" />
        </mxCell>
        <mxCell id="pYXvtJsU-asG7upFfrmA-77" value="Temperature Sensor" style="rounded=0;whiteSpace=wrap;html=1;fillColor=#ffe6cc;strokeColor=#d79b00;" parent="1" vertex="1">
          <mxGeometry x="880" y="400" width="90" height="30" as="geometry" />
        </mxCell>
        <mxCell id="pYXvtJsU-asG7upFfrmA-78" value="(Tank)" style="text;html=1;strokeColor=none;fillColor=none;align=center;verticalAlign=middle;whiteSpace=wrap;rounded=0;" parent="1" vertex="1">
          <mxGeometry x="880" y="430" width="90" height="30" as="geometry" />
        </mxCell>
        <mxCell id="pYXvtJsU-asG7upFfrmA-99" style="edgeStyle=orthogonalEdgeStyle;rounded=0;orthogonalLoop=1;jettySize=auto;html=1;exitX=0.75;exitY=0;exitDx=0;exitDy=0;entryX=1;entryY=0.5;entryDx=0;entryDy=0;" parent="1" source="pYXvtJsU-asG7upFfrmA-87" target="pYXvtJsU-asG7upFfrmA-95" edge="1">
          <mxGeometry relative="1" as="geometry" />
        </mxCell>
        <mxCell id="pYXvtJsU-asG7upFfrmA-101" style="edgeStyle=orthogonalEdgeStyle;rounded=0;orthogonalLoop=1;jettySize=auto;html=1;exitX=0.75;exitY=0;exitDx=0;exitDy=0;entryX=1;entryY=0.5;entryDx=0;entryDy=0;" parent="1" source="pYXvtJsU-asG7upFfrmA-87" target="pYXvtJsU-asG7upFfrmA-93" edge="1">
          <mxGeometry relative="1" as="geometry">
            <Array as="points">
              <mxPoint x="950" y="310" />
              <mxPoint x="950" y="165" />
            </Array>
          </mxGeometry>
        </mxCell>
        <mxCell id="pYXvtJsU-asG7upFfrmA-87" value="Plumbing Fixtures" style="rounded=0;whiteSpace=wrap;html=1;fillColor=#fff2cc;strokeColor=#d6b656;" parent="1" vertex="1">
          <mxGeometry x="880" y="310" width="80" height="50" as="geometry" />
        </mxCell>
        <mxCell id="pYXvtJsU-asG7upFfrmA-89" value="Water Pressure Sensor" style="rounded=0;whiteSpace=wrap;html=1;fillColor=#ffe6cc;strokeColor=#d79b00;" parent="1" vertex="1">
          <mxGeometry x="800" y="130" width="90" height="30" as="geometry" />
        </mxCell>
        <mxCell id="pYXvtJsU-asG7upFfrmA-90" value="Temperature Sensor" style="rounded=0;whiteSpace=wrap;html=1;fillColor=#ffe6cc;strokeColor=#d79b00;" parent="1" vertex="1">
          <mxGeometry x="800" y="210" width="90" height="30" as="geometry" />
        </mxCell>
        <mxCell id="pYXvtJsU-asG7upFfrmA-92" value="Water Pressure Sensor" style="rounded=0;whiteSpace=wrap;html=1;fillColor=#ffe6cc;strokeColor=#d79b00;" parent="1" vertex="1">
          <mxGeometry x="810" y="140" width="90" height="30" as="geometry" />
        </mxCell>
        <mxCell id="pYXvtJsU-asG7upFfrmA-93" value="Water Pressure Sensor" style="rounded=0;whiteSpace=wrap;html=1;fillColor=#ffe6cc;strokeColor=#d79b00;" parent="1" vertex="1">
          <mxGeometry x="820" y="150" width="90" height="30" as="geometry" />
        </mxCell>
        <mxCell id="pYXvtJsU-asG7upFfrmA-94" value="Temperature Sensor" style="rounded=0;whiteSpace=wrap;html=1;fillColor=#ffe6cc;strokeColor=#d79b00;" parent="1" vertex="1">
          <mxGeometry x="810" y="220" width="90" height="30" as="geometry" />
        </mxCell>
        <mxCell id="pYXvtJsU-asG7upFfrmA-95" value="Temperature Sensor" style="rounded=0;whiteSpace=wrap;html=1;fillColor=#ffe6cc;strokeColor=#d79b00;" parent="1" vertex="1">
          <mxGeometry x="820" y="230" width="90" height="30" as="geometry" />
        </mxCell>
        <mxCell id="bZnnXGi6zuuNG5KvTImj-2" value="CAN Bus" style="text;html=1;strokeColor=none;fillColor=none;align=center;verticalAlign=middle;whiteSpace=wrap;rounded=0;" vertex="1" parent="1">
          <mxGeometry x="1480" y="550" width="60" height="30" as="geometry" />
        </mxCell>
        <mxCell id="bZnnXGi6zuuNG5KvTImj-4" value="TinyHome" style="text;html=1;strokeColor=none;fillColor=none;align=center;verticalAlign=middle;whiteSpace=wrap;rounded=0;" vertex="1" parent="1">
          <mxGeometry x="910" y="1030" width="60" height="30" as="geometry" />
        </mxCell>
        <mxCell id="bZnnXGi6zuuNG5KvTImj-7" value="RWH" style="text;html=1;strokeColor=none;fillColor=none;align=center;verticalAlign=middle;whiteSpace=wrap;rounded=0;" vertex="1" parent="1">
          <mxGeometry x="835" y="70" width="60" height="30" as="geometry" />
        </mxCell>
        <mxCell id="bZnnXGi6zuuNG5KvTImj-8" value="Mech" style="text;html=1;strokeColor=none;fillColor=none;align=center;verticalAlign=middle;whiteSpace=wrap;rounded=0;" vertex="1" parent="1">
          <mxGeometry x="1090" y="250" width="60" height="30" as="geometry" />
        </mxCell>
        <mxCell id="bZnnXGi6zuuNG5KvTImj-15" value="" style="rounded=0;whiteSpace=wrap;html=1;fillColor=none;" vertex="1" parent="1">
          <mxGeometry x="700" y="70" width="280" height="390" as="geometry" />
        </mxCell>
        <mxCell id="bZnnXGi6zuuNG5KvTImj-16" value="" style="rounded=0;whiteSpace=wrap;html=1;fillColor=none;" vertex="1" parent="1">
          <mxGeometry x="980" y="240" width="290" height="220" as="geometry" />
        </mxCell>
        <mxCell id="bZnnXGi6zuuNG5KvTImj-17" value="" style="rounded=0;whiteSpace=wrap;html=1;fillColor=none;" vertex="1" parent="1">
          <mxGeometry x="760" y="710" width="400" height="350" as="geometry" />
        </mxCell>
        <mxCell id="bZnnXGi6zuuNG5KvTImj-18" value="" style="rounded=0;whiteSpace=wrap;html=1;fillColor=none;" vertex="1" parent="1">
          <mxGeometry x="1260" y="720" width="340" height="230" as="geometry" />
        </mxCell>
        <mxCell id="bZnnXGi6zuuNG5KvTImj-20" value="HRES" style="text;html=1;strokeColor=none;fillColor=none;align=center;verticalAlign=middle;whiteSpace=wrap;rounded=0;" vertex="1" parent="1">
          <mxGeometry x="1400" y="910" width="60" height="30" as="geometry" />
        </mxCell>
      </root>
    </mxGraphModel>
  </diagram>
</mxfile>
